HIERARCHY
ROOT Hips
{
    OFFSET 0.000000 0.000000 0.000000
    CHANNELS 6 Xposition Yposition Zposition Zrotation Xrotation Yrotation
    JOINT Spine
    {
        OFFSET -0.000000 8.603107 0.000000
        CHANNELS 3 Zrotation Xrotation Yrotation
        JOINT Spine1
        {
            OFFSET -0.000000 23.906662 0.000000
            CHANNELS 3 Zrotation Xrotation Yrotation
            JOINT Neck
            {
                OFFSET -0.000000 23.808481 2.164407
                CHANNELS 3 Zrotation Xrotation Yrotation
                JOINT Head
                {
                    OFFSET -0.000000 14.688231 -2.098319
                    CHANNELS 3 Zrotation Xrotation Yrotation
                    End Site
                    {
                        OFFSET -0.000000 26.228985 0.000000
                    }
                }
            }
            JOINT LeftShoulder
            {
                OFFSET 4.178941 22.658146 -0.129871
                CHANNELS 3 Zrotation Xrotation Yrotation
                JOINT LeftArm
                {
                    OFFSET 9.497952 0.000000 0.000000
                    CHANNELS 3 Zrotation Xrotation Yrotation
                    JOINT LeftForeArm
                    {
                        OFFSET 38.855015 0.000000 0.000000
                        CHANNELS 3 Zrotation Xrotation Yrotation
                        JOINT LeftHand
                        {
                            OFFSET 24.940550 0.000000 0.000000
                            CHANNELS 3 Zrotation Xrotation Yrotation
                            End Site
                            {
                                OFFSET 15.737392 0.000000 0.000000
                            }
                        }
                    }
                }
            }
            JOINT RightShoulder
            {
                OFFSET -4.145384 22.658146 -0.129871
                CHANNELS 3 Zrotation Xrotation Yrotation
                JOINT RightArm
                {
                    OFFSET -9.497952 0.000000 0.000000
                    CHANNELS 3 Zrotation Xrotation Yrotation
                    JOINT RightForeArm
                    {
                        OFFSET -38.855015 0.000000 0.000000
                        CHANNELS 3 Zrotation Xrotation Yrotation
                        JOINT RightHand
                        {
                            OFFSET -24.940550 0.000000 0.000000
                            CHANNELS 3 Zrotation Xrotation Yrotation
                            End Site
                            {
                                OFFSET -15.737392 0.000000 0.000000
                            }
                        }
                    }
                }
            }
        }
    }
    JOINT LeftUpLeg
    {
        OFFSET 10.491594 0.000000 0.000000
        CHANNELS 3 Zrotation Xrotation Yrotation
        JOINT LeftLeg
        {
            OFFSET -0.000000 -46.080647 0.000000
            CHANNELS 3 Zrotation Xrotation Yrotation
            JOINT LeftFoot
            {
                OFFSET -0.000000 -50.184704 0.000000
                CHANNELS 3 Zrotation Xrotation Yrotation
                JOINT LeftToeBase
                {
                    OFFSET -0.000000 -6.819536 15.737392
                    CHANNELS 3 Zrotation Xrotation Yrotation
                    End Site
                    {
                        OFFSET -0.000000 0.000000 4.196638
                    }
                }
            }
        }
    }
    JOINT RightUpLeg
    {
        OFFSET -10.491594 0.000000 0.000000
        CHANNELS 3 Zrotation Xrotation Yrotation
        JOINT RightLeg
        {
            OFFSET -0.000000 -46.080647 0.000000
            CHANNELS 3 Zrotation Xrotation Yrotation
            JOINT RightFoot
            {
                OFFSET -0.000000 -50.184704 0.000000
                CHANNELS 3 Zrotation Xrotation Yrotation
                JOINT RightToeBase
                {
                    OFFSET -0.000000 -6.819536 15.737392
                    CHANNELS 3 Zrotation Xrotation Yrotation
                    End Site
                    {
                        OFFSET -0.000000 0.000000 4.196638
                    }
                }
            }
        }
    }
}
MOTION
Frames:    4
Frame Time:    0.008333
-6.005930    104.495216    56.302868    -3.222460    -1.319050    93.828766    0.831734    -7.279512    0.168684    -0.393435    4.649994    0.132192    9.044475    8.457420    2.973811    -3.786116    -4.903180    1.739053    15.393491    -0.153069    -14.039756    -20.826868    2.144290    8.888057    2.139636    -5.064407    1.994829    8.210549    -5.029504    1.007141    -11.297742    3.868669    -8.530715    17.999912    -4.699387    1.537430    -0.244274    -7.489632    -2.695013    -7.757633    -7.143751    -5.224413    0.294278    -1.273425    0.673547    -2.583508    8.532065    -7.609059    0.000000    0.000000    0.000000    0.000000    0.000000    0.000000    3.396132    3.021934    2.319390    1.834131    -2.579826    -3.692799    -4.131121    2.732393    -13.302787    0.000000    0.000000    0.000000    
-5.980244    104.496216    56.273304    -3.262751    -1.327404    93.856773    0.769092    -7.285088    0.158667    -0.319573    4.483653    0.122068    9.209189    8.595556    3.268410    -3.336739    -4.663874    2.135072    15.265834    -0.144980    -14.001986    -20.724007    2.051955    8.837777    2.162450    -5.017518    2.023773    7.820220    -4.984468    1.044173    -11.284288    3.825758    -8.466066    17.927141    -4.631309    1.377733    -0.253804    -7.478922    -2.734396    -8.141849    -7.118984    -5.180299    0.283002    -1.292596    0.580129    -2.589810    8.518001    -7.605733    0.000000    0.000000    0.000000    0.000000    0.000000    0.000000    3.419769    2.982247    2.342572    1.777952    -2.552344    -3.824973    -4.101934    2.716846    -13.238942    0.000000    0.000000    0.000000    
-5.968525    104.495407    56.255829    -3.288833    -1.326265    93.857513    0.743994    -7.306659    0.169855    -0.334203    4.435514    0.135855    9.393096    8.582685    3.411546    -3.169515    -4.447367    2.306151    15.293365    -0.156635    -13.951220    -20.718708    1.975531    8.770806    2.181396    -4.999868    2.050291    7.888611    -4.968347    1.025254    -11.166225    3.912253    -8.513764    17.828533    -4.712195    1.401180    -0.285322    -7.474447    -2.763510    -7.937766    -7.127230    -5.141114    0.269482    -1.301178    0.520731    -2.595350    8.494837    -7.563415    0.000000    0.000000    0.000000    0.000000    0.000000    0.000000    3.385194    3.043772    2.353655    1.816150    -2.694247    -3.702133    -4.138994    2.785885    -13.362193    0.000000    0.000000    0.000000    
-5.958914    104.495277    56.241055    -3.311608    -1.321704    93.853958    0.742948    -7.309828    0.158488    -0.379384    4.344554    0.125474    9.601609    8.653016    3.606283    -3.094720    -4.284225    2.517869    15.247000    -0.177414    -13.896117    -20.656776    1.923984    8.772912    2.232747    -5.011418    2.053575    7.830903    -4.981723    1.020170    -11.120266    3.935717    -8.480738    17.816511    -4.721021    1.396783    -0.341969    -7.490547    -2.772138    -7.929076    -7.143652    -5.162412    0.258092    -1.311460    0.468959    -2.603006    8.485126    -7.556572    0.000000    0.000000    0.000000    0.000000    0.000000    0.000000    3.372094    3.051094    2.341597    1.813064    -2.738815    -3.714807    -4.130406    2.803590    -13.331150    0.000000    0.000000    0.000000    
